<svg width="1274" height="252" viewBox="0 0 1274 252" xmlns="http://www.w3.org/2000/svg">
  <title>Logo</title>
  <defs>
    <linearGradient x1="63.476%" y1="99.845%" x2="14.803%" y2="-.11%" id="a">
      <stop stop-color="#BE0000" stop-opacity=".996" offset="0%" />
      <stop stop-color="#F00" offset="100%" />
    </linearGradient>
    <linearGradient x1="45.65%" y1="103.577%" x2="55.352%" y2="3.204%" id="b">
      <stop stop-color="#FFF" offset="0%" />
      <stop stop-color="#FFF" offset="65%" />
      <stop stop-color="#A2A5A3" offset="95%" />
      <stop stop-color="#A2A5A3" offset="100%" />
    </linearGradient>
    <linearGradient x1=".021%" y1="50.134%" x2="100.034%" y2="50.134%" id="c">
      <stop stop-color="#FFF" offset="0%" />
      <stop stop-color="#A2A5A3" offset="90%" />
      <stop stop-color="#A2A5A3" offset="100%" />
    </linearGradient>
    <linearGradient x1="-.01%" y1="50.011%" x2="100.043%" y2="50.011%" id="d">
      <stop stop-color="#FFF" offset="0%" />
      <stop stop-color="#FFF" offset="43%" />
      <stop stop-color="#A2A5A3" offset="100%" />
    </linearGradient>
  </defs>
  <g fill-rule="nonzero" fill="none">
    <path d="M.146.103l3.2 8.5 14.3 37.5 78.3 205.4h257.7l-206.5-207.5c-27.5-27.5-64.9-43.9-103.8-43.9H.146z" fill="url(#a)" />
    <path d="M17.646 46.103c28.2 48.2 102.3 53.3 110.3 128.2.3 3.1 2.7 5.5 5.8 6 42.7 6.7 84.3 24.2 120.4 53.2.2.2.5.3.8.3.3 0 .6-.1.9-.3.5-.5.5-1.3 0-1.8-25-26.3-55.6-47.3-89.9-61.1l-10.4-4.2c-5.4-2.2-9.1-7.5-8.9-13.6.6-22.4 53.5-17.8 58.9-28.6l.9-1.9c-10.9-9.3-23.9-16.3-38.1-20.2-.1.5-.5 3.2 2.4 7.9 3.2 5.1-3.4 13.3-13.1 4.5l-.8-.7c-71.6-65.6-125.2-31.6-153.6-105.2l14.4 37.5z" fill="#FFF" />
    <path d="M165.746 118.303v17.9c7.7-2.2 16.5-3.6 23.9-5.2v-10s-11.7.6-18.9-11.2c2.2 3.6-.2 8.5-5 8.5" fill="url(#b)" />
    <path d="M142.546 181.903c39.6 7.6 77.9 24.7 111.5 51.6-53.8-46-86.6-53-101.7-53-5.8.1-9.1 1.2-9.8 1.4" fill="url(#c)" />
    <path d="M3.346 8.503l14.3 37.5c28.2 48.3 102.3 53.4 110.3 128.3-8.2-95.6-50.2-81.3-95.3-124.9-11.6-8.2-21.4-20.4-29.3-40.9z" fill="url(#d)" />
    <path d="M381.346 178.203c27.8 0 51.2-13.8 51.2-32.7 0-18.9-23.4-32.7-51.2-32.7-27.8 0-51.2 13.8-51.2 32.7 0 18.9 23.4 32.7 51.2 32.7zm-1.5 27.1c-51 0-83.3-26.5-83.3-59.7 0-33.8 34.3-59.7 84.8-59.7s84.8 26.1 84.8 58.4c0 14.5-6.4 26.4-18.7 36.3h30l-7.2 12.3c-4.5 7.8-10.1 12.4-22.1 12.4h-68.3zM535.946 160.903h53l-24.6-43.8c-.6-1-1-1.3-1.9-1.3-.9 0-1.3.3-1.9 1.3l-24.6 43.8zm66.6 24.2h-80.2l-11.4 20.2h-33.3l55.6-96.4c4.4-7.6 10.7-13.5 23.3-13.5h12.4c12.6 0 18.9 5.9 23.3 13.5l55.6 96.4h-34l-11.3-20.2zM806.346 95.503v109.8h-29.7l-87.3-72.8v72.8h-29.7v-109.8h18.6c9.5 0 14.3 2.5 19.8 7.2l78.6 65.5v-72.6l29.7-.1zM912.146 120.203v85.1h-29.7v-85.1h-60.9v-24.7h151.6v24.7h-61zM1005.346 160.903h53l-24.6-43.8c-.6-1-1-1.3-1.9-1.3-.9 0-1.3.3-1.9 1.3l-24.6 43.8zm66.7 24.2h-80.2l-11.4 20.2h-33.2l55.6-96.4c4.4-7.6 10.7-13.5 23.3-13.5h12.4c12.6 0 18.9 5.9 23.3 13.5l55.6 96.4h-34l-11.4-20.2zM1127.646 197.403l-2.8-.9 7.5-23.9c21.4 6.9 44.2 9.7 64.9 9.7 33.8 0 42.2-4 42.2-8.2 0-1.8-1.2-3.1-3.8-4-3.4-1.2-12.7-3.1-40.4-7.6-30.6-5-44.4-7.5-54.5-12.2-10.1-4.7-16.3-12.2-16.3-23.1 0-8.3 4.1-15.1 10.7-20.4 11.7-9.1 31.8-12.7 53.6-12.7 28.1 0 51.7 2.3 77.9 8.8l2.3.7-6.3 23.3c-29.3-6.3-45.5-8.1-67.8-8.3-15.7-.1-26.5 1-32.2 2.8-3.2 1-4.5 2.5-4.5 4.3 0 1.6 1 3.1 4.3 4.1 3.5 1.2 9.2 2.5 39.2 7.3 32.5 5.3 43.2 7.5 52.1 11 12.2 4.7 19.5 13.3 19.5 24.2 0 13.6-10.5 23.7-28.9 29.3-11.3 3.4-26.4 5.3-43.3 5.3-26.7-.1-55.1-3.6-73.4-9.5" fill="#323232" />
  </g>
</svg>
